#N canvas 88 0 1278 730 10;
#X obj 95 165 until;
#X obj 86 209 cup;
#X msg 10 182 1;
#X obj 154 213 select;
#X obj 86 240 t f f;
#X obj 97 126 t f f b;
#X obj 56 26 inlet;
#X obj 95 283 outlet;
#X obj 443 292 outlet;
#X obj 254 280 outlet;
#X text 159 286 Number;
#X text 300 285 Start count;
#X text 489 285 End count;
#X obj 57 88 wait 255;
#X connect 0 0 1 0;
#X connect 1 0 4 0;
#X connect 2 0 1 0;
#X connect 3 0 2 0;
#X connect 3 0 8 0;
#X connect 4 0 7 0;
#X connect 4 1 3 0;
#X connect 5 0 0 0;
#X connect 5 1 3 1;
#X connect 5 2 2 0;
#X connect 5 2 9 0;
#X connect 6 0 13 0;
#X connect 13 0 5 0;
