#N canvas 0 0 1366 726 10;
#X obj 1022 243 vline~;
#X obj 1039 63 t b b b;
#X msg 986 161 0 \, 1 \$1;
#X obj 958 121 f;
#X obj 906 -7 r size;
#X obj 1116 73 r size;
#X obj 1131 97 / 2;
#X obj 1199 134 f;
#X obj 1215 81 r size;
#X msg 1144 174 0 \$1;
#X obj 171 -57 f \$1;
#X obj 164 -95 loadbang;
#X obj 287 608 outlet~;
#X obj 1044 28 del;
#X obj 1133 -71 loadbang;
#X obj 1134 -46 f \$1;
#X obj 1127 34 expr $f2 * $f1 - $f2;
#X obj 1249 -70 r size;
#X obj 1207 -32 t b f;
#X obj 1028 -27 r vbang;
#X obj 92 269 cos~;
#X obj 97 316 *~;
#X obj 143 348 *~;
#X obj 97 117 *~;
#X obj 101 -21 inlet~;
#X obj 1087 133 del;
#X obj 1213 111 / 2;
#X obj 981 -23 r at;
#X obj 973 2 max 2;
#X obj 936 53 /;
#X obj 940 22 t b f;
#X obj 487 166 *~ 9;
#X obj 526 287 wrap~;
#X obj 342 99 *~ -1;
#X obj 521 205 clip~ -1 0;
#X obj 419 313 +~ 1;
#X obj 554 108 f \$1;
#X obj 559 68 loadbang;
#X obj 528 157 * -1;
#X obj 585 158 * -1;
#X obj 590 128 - 1;
#X obj 232 398 *~;
#X obj 433 435 cos~;
#X obj 297 522 *~;
#X obj 429 374 *~ \$1;
#X obj 433 407 *~ 0.25;
#X obj 801 406 square~;
#X connect 1 0 3 0;
#X connect 1 0 25 0;
#X connect 2 0 0 0;
#X connect 3 0 2 0;
#X connect 4 0 29 0;
#X connect 5 0 6 0;
#X connect 6 0 25 1;
#X connect 7 0 9 0;
#X connect 8 0 26 0;
#X connect 9 0 0 0;
#X connect 10 0 23 1;
#X connect 11 0 10 0;
#X connect 13 0 1 0;
#X connect 14 0 15 0;
#X connect 15 0 16 0;
#X connect 16 0 13 1;
#X connect 17 0 18 0;
#X connect 18 0 16 0;
#X connect 18 1 16 1;
#X connect 19 0 13 0;
#X connect 20 0 21 0;
#X connect 20 0 21 1;
#X connect 21 0 22 0;
#X connect 21 0 22 1;
#X connect 22 0 41 0;
#X connect 23 0 20 0;
#X connect 24 0 23 0;
#X connect 24 0 33 0;
#X connect 24 0 44 0;
#X connect 25 0 7 0;
#X connect 26 0 7 1;
#X connect 27 0 28 0;
#X connect 28 0 30 0;
#X connect 29 0 3 1;
#X connect 30 0 29 0;
#X connect 30 1 29 1;
#X connect 31 0 34 0;
#X connect 33 0 31 0;
#X connect 34 0 32 0;
#X connect 34 0 35 0;
#X connect 35 0 41 1;
#X connect 36 0 38 0;
#X connect 36 0 40 0;
#X connect 36 0 35 1;
#X connect 37 0 36 0;
#X connect 38 0 34 1;
#X connect 39 0 34 2;
#X connect 40 0 39 0;
#X connect 41 0 43 0;
#X connect 42 0 43 1;
#X connect 43 0 12 0;
#X connect 44 0 45 0;
#X connect 45 0 42 0;
