#N canvas 0 24 1278 914 10;
#X obj 632 107 inlet;
#X obj 567 298 line;
#X obj 626 326 ==;
#X obj 673 373 f;
#X obj 630 348 sel 1;
#X obj 674 417 outlet;
#X obj 634 139 t f b f f;
#X obj 560 266 pack f 255;
#X obj 489 74 f \$1;
#X obj 474 29 loadbang;
#N canvas 770 377 450 300 \$0-arg-test 0;
#X obj 265 155 > 0;
#X obj 239 186 sel 1;
#X obj 319 130 t f f;
#X obj 285 215 f;
#X obj 324 67 inlet;
#X obj 294 270 outlet;
#X text 99 146 Is the argument higher than 0?;
#X connect 0 0 1 0;
#X connect 1 0 3 0;
#X connect 2 0 0 0;
#X connect 2 1 3 1;
#X connect 3 0 5 0;
#X connect 4 0 2 0;
#X restore 438 141 pd \$0-arg-test;
#X text 816 262 Only sends out a float when no change has occured over
'N' ms. Arg1=N (Default = 255);
#X connect 0 0 6 0;
#X connect 1 0 2 0;
#X connect 2 0 4 0;
#X connect 3 0 5 0;
#X connect 4 0 3 0;
#X connect 6 0 7 0;
#X connect 6 2 2 1;
#X connect 6 3 3 1;
#X connect 7 0 1 0;
#X connect 8 0 10 0;
#X connect 9 0 8 0;
#X connect 10 0 7 1;
