#N canvas 0 42 1278 726 10;
#X obj 290 71 inlet~;
#X obj 371 73 inlet~;
#X obj 317 178 writesf~ 2;
#X msg 222 156 stop;
#X obj 134 199 savepanel;
#X obj 101 101 bng 15 250 50 0 empty empty Save_and_Record 17 7 0 10
-4034 -1 -1;
#X obj 101 120 bng 15 250 50 0 empty empty Stop 17 7 0 10 -258113 -1
-1;
#X obj 228 293 print;
#X msg 185 247 open \$1 \, start;
#X connect 0 0 2 0;
#X connect 1 0 2 1;
#X connect 3 0 2 0;
#X connect 4 0 8 0;
#X connect 5 0 4 0;
#X connect 6 0 3 0;
#X connect 8 0 2 0;
#X connect 8 0 7 0;
#X coords 0 -1 1 1 150 36 2 100 100;
