#N canvas 55 24 1311 718 10;
#X obj 318 122 cnv 15 413 441 empty empty Table\ Polyphonic\ Playback
20 12 0 14 -261234 -66577 0;
#X obj 317 62 cnv 15 415 62 empty empty Tables:\ Left\ and\ Right\ channel
20 12 0 14 -204786 -66577 0;
#X obj 54 62 cnv 15 263 261 empty empty Load\ file\ on\ loadbang 20
12 0 14 -233017 -66577 0;
#X obj 89 85 loadbang;
#X obj 84 298 soundfiler;
#X obj 86 225 pack s f;
#X obj 102 176 t s b;
#X msg 83 269 read -resize \$1 table-\$2-L table-\$2-R;
#X obj 95 129 symbol \$2;
#X obj 148 194 f \$1;
#X obj 317 87 table table-\$1-L;
#X obj 435 87 table table-\$1-R;
#X obj 321 529 throw~ routedTableRead-L;
#X obj 484 529 throw~ routedTableRead-R;
#X obj 327 170 r routedTableRead-\$1.Play;
#N canvas 55 24 1311 718 voice 0;
#X obj 53 88 inlet;
#X obj 319 444 outlet~;
#X obj 450 446 outlet~;
#X obj 355 175 tabplay~ table-\$1-L;
#X obj 490 178 tabplay~ table-\$1-R;
#N canvas 55 24 1311 718 randomPan 0;
#X obj 537 246 -;
#X obj 462 170 markex/randomF 1;
#X obj 514 195 swap 1;
#X obj 449 86 inlet;
#X obj 411 289 outlet;
#X obj 521 299 outlet;
#X obj 447 109 t b;
#X connect 0 0 5 0;
#X connect 1 0 2 0;
#X connect 1 0 4 0;
#X connect 2 0 0 0;
#X connect 2 1 0 1;
#X connect 3 0 6 0;
#X connect 6 0 1 0;
#X restore 456 236 pd randomPan;
#X obj 410 111 t b b b;
#X obj 413 256 *~ 1;
#X obj 552 277 *~ 1;
#X connect 0 0 6 0;
#X connect 3 0 7 0;
#X connect 4 0 8 0;
#X connect 5 0 7 1;
#X connect 5 1 8 1;
#X connect 6 0 3 0;
#X connect 6 1 4 0;
#X connect 6 2 5 0;
#X connect 7 0 1 0;
#X connect 8 0 2 0;
#X restore 327 352 pd voice;
#N canvas 55 24 1311 718 voice 0;
#X obj 53 88 inlet;
#X obj 319 444 outlet~;
#X obj 450 446 outlet~;
#X obj 355 175 tabplay~ table-\$1-L;
#X obj 490 178 tabplay~ table-\$1-R;
#N canvas 55 24 1311 718 randomPan 0;
#X obj 537 246 -;
#X obj 462 170 markex/randomF 1;
#X obj 514 195 swap 1;
#X obj 449 86 inlet;
#X obj 411 289 outlet;
#X obj 521 299 outlet;
#X obj 447 109 t b;
#X connect 0 0 5 0;
#X connect 1 0 2 0;
#X connect 1 0 4 0;
#X connect 2 0 0 0;
#X connect 2 1 0 1;
#X connect 3 0 6 0;
#X connect 6 0 1 0;
#X restore 456 236 pd randomPan;
#X obj 410 111 t b b b;
#X obj 413 256 *~ 1;
#X obj 552 277 *~ 1;
#X connect 0 0 6 0;
#X connect 3 0 7 0;
#X connect 4 0 8 0;
#X connect 5 0 7 1;
#X connect 5 1 8 1;
#X connect 6 0 3 0;
#X connect 6 1 4 0;
#X connect 6 2 5 0;
#X connect 7 0 1 0;
#X connect 8 0 2 0;
#X restore 398 352 pd voice;
#N canvas 55 24 1311 718 voice 0;
#X obj 53 88 inlet;
#X obj 319 444 outlet~;
#X obj 450 446 outlet~;
#X obj 355 175 tabplay~ table-\$1-L;
#X obj 490 178 tabplay~ table-\$1-R;
#N canvas 55 24 1311 718 randomPan 0;
#X obj 537 246 -;
#X obj 462 170 markex/randomF 1;
#X obj 514 195 swap 1;
#X obj 449 86 inlet;
#X obj 411 289 outlet;
#X obj 521 299 outlet;
#X obj 447 109 t b;
#X connect 0 0 5 0;
#X connect 1 0 2 0;
#X connect 1 0 4 0;
#X connect 2 0 0 0;
#X connect 2 1 0 1;
#X connect 3 0 6 0;
#X connect 6 0 1 0;
#X restore 456 236 pd randomPan;
#X obj 410 111 t b b b;
#X obj 413 256 *~ 1;
#X obj 552 277 *~ 1;
#X connect 0 0 6 0;
#X connect 3 0 7 0;
#X connect 4 0 8 0;
#X connect 5 0 7 1;
#X connect 5 1 8 1;
#X connect 6 0 3 0;
#X connect 6 1 4 0;
#X connect 6 2 5 0;
#X connect 7 0 1 0;
#X connect 8 0 2 0;
#X restore 483 352 pd voice;
#N canvas 55 24 1311 718 voice 0;
#X obj 53 88 inlet;
#X obj 319 444 outlet~;
#X obj 450 446 outlet~;
#X obj 355 175 tabplay~ table-\$1-L;
#X obj 490 178 tabplay~ table-\$1-R;
#N canvas 55 24 1311 718 randomPan 0;
#X obj 537 246 -;
#X obj 462 170 markex/randomF 1;
#X obj 514 195 swap 1;
#X obj 449 86 inlet;
#X obj 411 289 outlet;
#X obj 521 299 outlet;
#X obj 447 109 t b;
#X connect 0 0 5 0;
#X connect 1 0 2 0;
#X connect 1 0 4 0;
#X connect 2 0 0 0;
#X connect 2 1 0 1;
#X connect 3 0 6 0;
#X connect 6 0 1 0;
#X restore 456 236 pd randomPan;
#X obj 410 111 t b b b;
#X obj 413 256 *~ 1;
#X obj 552 277 *~ 1;
#X connect 0 0 6 0;
#X connect 3 0 7 0;
#X connect 4 0 8 0;
#X connect 5 0 7 1;
#X connect 5 1 8 1;
#X connect 6 0 3 0;
#X connect 6 1 4 0;
#X connect 6 2 5 0;
#X connect 7 0 1 0;
#X connect 8 0 2 0;
#X restore 548 352 pd voice;
#N canvas 55 24 1311 718 voice 0;
#X obj 404 56 inlet;
#X obj 319 444 outlet~;
#X obj 450 446 outlet~;
#X obj 355 175 tabplay~ table-\$1-L;
#X obj 490 178 tabplay~ table-\$1-R;
#N canvas 55 24 1311 718 randomPan 0;
#X obj 537 246 -;
#X obj 462 170 markex/randomF 1;
#X obj 514 195 swap 1;
#X obj 449 86 inlet;
#X obj 411 289 outlet;
#X obj 521 299 outlet;
#X obj 447 109 t b;
#X connect 0 0 5 0;
#X connect 1 0 2 0;
#X connect 1 0 4 0;
#X connect 2 0 0 0;
#X connect 2 1 0 1;
#X connect 3 0 6 0;
#X connect 6 0 1 0;
#X restore 456 236 pd randomPan;
#X obj 410 111 t b b b;
#X obj 413 256 *~ 1;
#X obj 552 277 *~ 1;
#X connect 0 0 6 0;
#X connect 3 0 7 0;
#X connect 4 0 8 0;
#X connect 5 0 7 1;
#X connect 5 1 8 1;
#X connect 6 0 3 0;
#X connect 6 1 4 0;
#X connect 6 2 5 0;
#X connect 7 0 1 0;
#X connect 8 0 2 0;
#X restore 625 352 pd voice;
#X obj 327 219 cup;
#X obj 327 253 % 6;
#X obj 327 273 pack f f;
#X obj 327 298 route 0 1 2 3 4;
#X obj 327 199 t b f;
#X text 363 220 If this table is triggered more than once the multple
voices can deal with any polyphony;
#X obj 54 34 cnv 15 678 27 empty empty routedTableRead\ Args:\ 1.\ ID\ 2.\ Soundfile\ path
20 12 0 18 -261682 -66577 0;
#X connect 3 0 8 0;
#X connect 5 0 7 0;
#X connect 6 0 5 0;
#X connect 6 1 9 0;
#X connect 7 0 4 0;
#X connect 8 0 6 0;
#X connect 9 0 5 1;
#X connect 14 0 24 0;
#X connect 15 0 12 0;
#X connect 15 1 13 0;
#X connect 16 0 12 0;
#X connect 16 1 13 0;
#X connect 17 0 12 0;
#X connect 17 1 13 0;
#X connect 18 0 12 0;
#X connect 18 1 13 0;
#X connect 19 0 12 0;
#X connect 19 1 13 0;
#X connect 20 0 21 0;
#X connect 21 0 22 0;
#X connect 22 0 23 0;
#X connect 23 0 15 0;
#X connect 23 1 16 0;
#X connect 23 2 17 0;
#X connect 23 3 18 0;
#X connect 23 4 19 0;
#X connect 24 0 20 0;
#X connect 24 1 22 1;
