#N canvas 55 24 1311 718 10;
#X obj 512 295 readsf~ 2;
#X msg 396 251 start;
#X msg 543 257 open \$1;
#X obj 381 471 throw~ routedSfRead-L;
#X obj 577 468 throw~ routedSfRead-R;
#X text 728 460 Send all audio onto a global bus;
#X obj 694 130 r routedSfRead-\$1.Load;
#X obj 397 154 r routedSfRead-\$1.Play;
#N canvas 55 24 1311 718 randomPan 0;
#X obj 537 246 -;
#X obj 462 170 markex/randomF 1;
#X obj 514 195 swap 1;
#X obj 449 86 inlet;
#X obj 411 289 outlet;
#X obj 521 299 outlet;
#X obj 447 109 t b;
#X connect 0 0 5 0;
#X connect 1 0 2 0;
#X connect 1 0 4 0;
#X connect 2 0 0 0;
#X connect 2 1 0 1;
#X connect 3 0 6 0;
#X connect 6 0 1 0;
#X restore 340 337 pd randomPan;
#X text 367 114 Argument: 1 ID of object. 2 File name;
#X obj 568 136 loadbang;
#X obj 553 172 symbol \$2;
#X obj 627 311 print reader;
#X obj 444 418 *~ 1;
#X obj 587 407 *~ 1;
#X msg 451 211 stop;
#X obj 380 187 t b b b;
#X connect 0 0 13 0;
#X connect 0 1 14 0;
#X connect 1 0 0 0;
#X connect 2 0 0 0;
#X connect 2 0 12 0;
#X connect 7 0 16 0;
#X connect 8 0 13 1;
#X connect 8 1 14 1;
#X connect 10 0 11 0;
#X connect 11 0 2 0;
#X connect 13 0 3 0;
#X connect 14 0 4 0;
#X connect 15 0 0 0;
#X connect 16 0 1 0;
#X connect 16 1 8 0;
#X connect 16 2 15 0;
