#N canvas 55 24 1311 718 10;
#X obj 512 295 readsf~ 2;
#X msg 396 251 start;
#X msg 543 257 open \$1;
#X obj 381 471 throw~ routedSfRead-L;
#X obj 577 468 throw~ routedSfRead-R;
#X text 728 460 Send all audio onto a global bus;
#X text 367 114 Argument: 1 ID of object;
#X obj 550 169 r routedSfRead-\$1.Load;
#X obj 397 154 r routedSfRead-\$1.Play;
#X obj 541 221 symbol;
#N canvas 55 24 1311 718 randomPan 0;
#X obj 537 246 -;
#X obj 462 170 markex/randomF 1;
#X obj 514 195 swap 1;
#X obj 449 86 inlet;
#X obj 411 289 outlet;
#X obj 521 299 outlet;
#X obj 447 109 t b;
#X connect 0 0 5 0;
#X connect 1 0 2 0;
#X connect 1 0 4 0;
#X connect 2 0 0 0;
#X connect 2 1 0 1;
#X connect 3 0 6 0;
#X connect 6 0 1 0;
#X restore 340 337 pd randomPan;
#X obj 444 418 *~ 0;
#X obj 587 407 *~ 0;
#X connect 0 0 11 0;
#X connect 0 1 12 0;
#X connect 1 0 0 0;
#X connect 2 0 0 0;
#X connect 7 0 9 0;
#X connect 8 0 1 0;
#X connect 8 0 10 0;
#X connect 9 0 2 0;
#X connect 10 0 11 1;
#X connect 10 1 12 1;
#X connect 11 0 3 0;
#X connect 12 0 4 0;
