#N canvas 55 24 1311 718 10;
#X obj 132 67 loadbang;
#X obj 127 280 soundfiler;
#X obj 129 207 pack s f;
#X obj 145 158 t s b;
#X msg 126 251 read -resize \$1 table-\$2-L table-\$2-R;
#X obj 138 111 symbol \$2;
#X obj 191 176 f \$1;
#X obj 556 234 table table-\$1-L;
#X obj 670 240 table table-\$1-R;
#X obj 450 514 tabplay~ table-\$1-L;
#X obj 596 522 tabplay~ table-\$1-R;
#X obj 410 583 throw~ routedTableRead-L;
#X obj 626 582 throw~ routedTableRead-R;
#X obj 420 430 r routedTableRead-\$1.Play;
#X connect 0 0 5 0;
#X connect 2 0 4 0;
#X connect 3 0 2 0;
#X connect 3 1 6 0;
#X connect 4 0 1 0;
#X connect 5 0 3 0;
#X connect 6 0 2 1;
#X connect 9 0 11 0;
#X connect 10 0 12 0;
#X connect 13 0 9 0;
#X connect 13 0 10 0;
