#N canvas 55 24 1311 718 10;
#X obj 132 67 loadbang;
#X obj 127 280 soundfiler;
#X obj 129 207 pack s f;
#X obj 145 158 t s b;
#X msg 126 251 read -resize \$1 table-\$2-L table-\$2-R;
#X obj 138 111 symbol \$2;
#X obj 191 176 f \$1;
#X obj 556 234 table table-\$1-L;
#X obj 670 240 table table-\$1-R;
#X obj 412 635 throw~ routedTableRead-L;
#X obj 626 595 throw~ routedTableRead-R;
#X obj 487 276 r routedTableRead-\$1.Play;
#N canvas 55 24 1311 718 voice 0;
#X obj 53 88 inlet;
#X obj 319 444 outlet~;
#X obj 450 446 outlet~;
#X obj 355 175 tabplay~ table-\$1-L;
#X obj 490 178 tabplay~ table-\$1-R;
#N canvas 55 24 1311 718 randomPan 0;
#X obj 537 246 -;
#X obj 462 170 markex/randomF 1;
#X obj 514 195 swap 1;
#X obj 449 86 inlet;
#X obj 411 289 outlet;
#X obj 521 299 outlet;
#X obj 447 109 t b;
#X connect 0 0 5 0;
#X connect 1 0 2 0;
#X connect 1 0 4 0;
#X connect 2 0 0 0;
#X connect 2 1 0 1;
#X connect 3 0 6 0;
#X connect 6 0 1 0;
#X restore 456 236 pd randomPan;
#X obj 410 111 t b b b;
#X obj 413 256 *~ 1;
#X obj 552 277 *~ 1;
#X connect 0 0 6 0;
#X connect 3 0 7 0;
#X connect 4 0 8 0;
#X connect 5 0 7 1;
#X connect 5 1 8 1;
#X connect 6 0 3 0;
#X connect 6 1 4 0;
#X connect 6 2 5 0;
#X connect 7 0 1 0;
#X connect 8 0 2 0;
#X restore 477 458 pd voice;
#N canvas 55 24 1311 718 voice 0;
#X obj 53 88 inlet;
#X obj 319 444 outlet~;
#X obj 450 446 outlet~;
#X obj 355 175 tabplay~ table-\$1-L;
#X obj 490 178 tabplay~ table-\$1-R;
#N canvas 55 24 1311 718 randomPan 0;
#X obj 537 246 -;
#X obj 462 170 markex/randomF 1;
#X obj 514 195 swap 1;
#X obj 449 86 inlet;
#X obj 411 289 outlet;
#X obj 521 299 outlet;
#X obj 447 109 t b;
#X connect 0 0 5 0;
#X connect 1 0 2 0;
#X connect 1 0 4 0;
#X connect 2 0 0 0;
#X connect 2 1 0 1;
#X connect 3 0 6 0;
#X connect 6 0 1 0;
#X restore 456 236 pd randomPan;
#X obj 410 111 t b b b;
#X obj 413 256 *~ 1;
#X obj 552 277 *~ 1;
#X connect 0 0 6 0;
#X connect 3 0 7 0;
#X connect 4 0 8 0;
#X connect 5 0 7 1;
#X connect 5 1 8 1;
#X connect 6 0 3 0;
#X connect 6 1 4 0;
#X connect 6 2 5 0;
#X connect 7 0 1 0;
#X connect 8 0 2 0;
#X restore 576 462 pd voice;
#N canvas 55 24 1311 718 voice 0;
#X obj 53 88 inlet;
#X obj 319 444 outlet~;
#X obj 450 446 outlet~;
#X obj 355 175 tabplay~ table-\$1-L;
#X obj 490 178 tabplay~ table-\$1-R;
#N canvas 55 24 1311 718 randomPan 0;
#X obj 537 246 -;
#X obj 462 170 markex/randomF 1;
#X obj 514 195 swap 1;
#X obj 449 86 inlet;
#X obj 411 289 outlet;
#X obj 521 299 outlet;
#X obj 447 109 t b;
#X connect 0 0 5 0;
#X connect 1 0 2 0;
#X connect 1 0 4 0;
#X connect 2 0 0 0;
#X connect 2 1 0 1;
#X connect 3 0 6 0;
#X connect 6 0 1 0;
#X restore 456 236 pd randomPan;
#X obj 410 111 t b b b;
#X obj 413 256 *~ 1;
#X obj 552 277 *~ 1;
#X connect 0 0 6 0;
#X connect 3 0 7 0;
#X connect 4 0 8 0;
#X connect 5 0 7 1;
#X connect 5 1 8 1;
#X connect 6 0 3 0;
#X connect 6 1 4 0;
#X connect 6 2 5 0;
#X connect 7 0 1 0;
#X connect 8 0 2 0;
#X restore 661 462 pd voice;
#N canvas 55 24 1311 718 voice 0;
#X obj 53 88 inlet;
#X obj 319 444 outlet~;
#X obj 450 446 outlet~;
#X obj 355 175 tabplay~ table-\$1-L;
#X obj 490 178 tabplay~ table-\$1-R;
#N canvas 55 24 1311 718 randomPan 0;
#X obj 537 246 -;
#X obj 462 170 markex/randomF 1;
#X obj 514 195 swap 1;
#X obj 449 86 inlet;
#X obj 411 289 outlet;
#X obj 521 299 outlet;
#X obj 447 109 t b;
#X connect 0 0 5 0;
#X connect 1 0 2 0;
#X connect 1 0 4 0;
#X connect 2 0 0 0;
#X connect 2 1 0 1;
#X connect 3 0 6 0;
#X connect 6 0 1 0;
#X restore 456 236 pd randomPan;
#X obj 410 111 t b b b;
#X obj 413 256 *~ 1;
#X obj 552 277 *~ 1;
#X connect 0 0 6 0;
#X connect 3 0 7 0;
#X connect 4 0 8 0;
#X connect 5 0 7 1;
#X connect 5 1 8 1;
#X connect 6 0 3 0;
#X connect 6 1 4 0;
#X connect 6 2 5 0;
#X connect 7 0 1 0;
#X connect 8 0 2 0;
#X restore 726 467 pd voice;
#N canvas 55 24 1311 718 voice 0;
#X obj 53 88 inlet;
#X obj 319 444 outlet~;
#X obj 450 446 outlet~;
#X obj 355 175 tabplay~ table-\$1-L;
#X obj 490 178 tabplay~ table-\$1-R;
#N canvas 55 24 1311 718 randomPan 0;
#X obj 537 246 -;
#X obj 462 170 markex/randomF 1;
#X obj 514 195 swap 1;
#X obj 449 86 inlet;
#X obj 411 289 outlet;
#X obj 521 299 outlet;
#X obj 447 109 t b;
#X connect 0 0 5 0;
#X connect 1 0 2 0;
#X connect 1 0 4 0;
#X connect 2 0 0 0;
#X connect 2 1 0 1;
#X connect 3 0 6 0;
#X connect 6 0 1 0;
#X restore 456 236 pd randomPan;
#X obj 410 111 t b b b;
#X obj 413 256 *~ 1;
#X obj 552 277 *~ 1;
#X connect 0 0 6 0;
#X connect 3 0 7 0;
#X connect 4 0 8 0;
#X connect 5 0 7 1;
#X connect 5 1 8 1;
#X connect 6 0 3 0;
#X connect 6 1 4 0;
#X connect 6 2 5 0;
#X connect 7 0 1 0;
#X connect 8 0 2 0;
#X restore 803 470 pd voice;
#X obj 485 325 cup;
#X obj 496 359 % 6;
#X obj 497 379 pack f f;
#X obj 501 404 route 0 1 2 3 4;
#X text 615 407 Polyphonic;
#X obj 516 305 t b f;
#X connect 0 0 5 0;
#X connect 2 0 4 0;
#X connect 3 0 2 0;
#X connect 3 1 6 0;
#X connect 4 0 1 0;
#X connect 5 0 3 0;
#X connect 6 0 2 1;
#X connect 11 0 22 0;
#X connect 12 0 9 0;
#X connect 12 1 10 0;
#X connect 13 0 9 0;
#X connect 13 1 10 0;
#X connect 14 0 9 0;
#X connect 14 1 10 0;
#X connect 15 0 9 0;
#X connect 15 1 10 0;
#X connect 16 0 9 0;
#X connect 16 1 10 0;
#X connect 17 0 18 0;
#X connect 18 0 19 0;
#X connect 19 0 20 0;
#X connect 20 0 12 0;
#X connect 20 1 13 0;
#X connect 20 2 14 0;
#X connect 20 3 15 0;
#X connect 20 4 16 0;
#X connect 22 0 17 0;
#X connect 22 1 19 1;
