#N canvas 45 14 1012 669 12;
#X obj 561 599 dac~;
#X obj 536 516 *~ 0.5;
#X obj 615 514 *~ 0.5;
#N canvas 0 0 1366 726 pitch*0.5! 0;
#X obj 797 212 until;
#X obj 796 266 f;
#X floatatom 720 198 5 0 0 0 - - -, f 5;
#X obj 811 167 t f b;
#X obj 799 372 +;
#X obj 837 376 f;
#X floatatom 838 439 15 0 0 0 - - -, f 15;
#X msg 801 87 10;
#X obj 693 155 select 0;
#X obj 659 308 f;
#X obj 834 266 * 0.5;
#X text 916 225 urrrg how to I do just intonation .... and ... why?
;
#X connect 0 0 1 0;
#X connect 1 0 10 0;
#X connect 2 0 1 1;
#X connect 2 0 4 1;
#X connect 2 0 9 1;
#X connect 3 0 0 0;
#X connect 3 1 2 0;
#X connect 4 0 5 0;
#X connect 5 0 4 1;
#X connect 5 0 6 0;
#X connect 7 0 3 0;
#X connect 8 0 9 0;
#X connect 8 1 3 0;
#X connect 10 0 4 0;
#X connect 10 0 1 1;
#X restore 100 -9 pd pitch*0.5!;
#N canvas 0 0 1366 726 match 0;
#X obj 144 73 inlet;
#X obj 835 83 inlet;
#X obj 546 380 ==;
#X obj 551 410 change;
#X obj 543 437 t f f;
#X obj 541 490 metro 100;
#X obj 545 530 cup;
#X obj 542 676 outlet;
#X obj 649 487 sel 0;
#X msg 660 521 0;
#X obj 729 587 ==;
#X obj 693 618 sel 1;
#X text 804 616 If the new `goal pitch' is the same as the previous
goal pitch \, find another!;
#X obj 267 144 t f f;
#X obj 694 686 s re-trig;
#X obj 694 657 delay 1;
#X obj 572 613 s win;
#X obj 538 571 sel 10;
#N canvas 0 0 1366 726 mouseclick 0;
#X obj 538 106 inlet;
#X obj 516 186 f;
#X obj 408 120 r click;
#X obj 511 288 select 1;
#X obj 509 379 outlet;
#X obj 511 321 t b b;
#X msg 656 252 0;
#X connect 0 0 1 1;
#X connect 1 0 3 0;
#X connect 2 0 1 0;
#X connect 3 0 5 0;
#X connect 5 0 4 0;
#X connect 5 1 6 0;
#X connect 6 0 1 1;
#X restore 346 532 pd mouseclick;
#X obj 643 336 r win;
#X msg 645 370 0;
#X text 694 363 refresh change;
#N canvas 0 0 1366 726 gate 0;
#X obj 682 173 inlet;
#X obj 685 361 gate;
#X obj 548 228 r start;
#X obj 682 452 outlet;
#X msg 588 285 1;
#X obj 485 243 r stop;
#X msg 515 291 0;
#X obj 399 268 r lb1;
#X connect 0 0 1 1;
#X connect 1 0 3 0;
#X connect 2 0 4 0;
#X connect 4 0 1 0;
#X connect 5 0 6 0;
#X connect 6 0 1 0;
#X connect 7 0 6 0;
#X restore 696 186 pd gate;
#X connect 0 0 13 0;
#X connect 1 0 10 1;
#X connect 1 0 22 0;
#X connect 2 0 3 0;
#X connect 2 0 18 0;
#X connect 3 0 4 0;
#X connect 4 0 8 0;
#X connect 4 1 5 0;
#X connect 5 0 6 0;
#X connect 6 0 17 0;
#X connect 8 0 9 0;
#X connect 9 0 6 0;
#X connect 10 0 11 0;
#X connect 11 0 15 0;
#X connect 13 0 2 1;
#X connect 13 1 10 0;
#X connect 15 0 14 0;
#X connect 17 0 7 0;
#X connect 17 0 16 0;
#X connect 18 0 16 0;
#X connect 18 0 7 0;
#X connect 19 0 20 0;
#X connect 20 0 3 0;
#X connect 22 0 2 0;
#X restore 549 283 pd match;
#N canvas 0 0 999 682 synth1 0;
#X obj 114 171 osc~ 0;
#X obj 183 166 osc~ 0;
#X obj 267 168 osc~ 0;
#X obj 353 173 osc~ 0;
#X obj 133 284 *~ 1;
#X obj 261 499 outlet~;
#X obj 523 37 inlet;
#X obj 363 478 *~;
#X obj 530 125 % 2;
#X obj 191 286 *~ 0.5;
#X obj 264 287 *~ 0.25;
#X obj 345 287 *~ 0.125;
#X obj 276 73 *~ 4;
#X obj 204 76 *~ 3;
#X obj 147 72 *~ 2;
#X obj 87 26 line~;
#X obj 80 -171 inlet;
#X msg 84 -112 \$1 50;
#X obj 524 321 vline~;
#X msg 546 240 \$1 100;
#X connect 0 0 4 0;
#X connect 1 0 9 0;
#X connect 2 0 10 0;
#X connect 3 0 11 0;
#X connect 4 0 5 0;
#X connect 6 0 8 0;
#X connect 7 0 5 0;
#X connect 8 0 19 0;
#X connect 9 0 7 0;
#X connect 10 0 7 0;
#X connect 11 0 7 0;
#X connect 12 0 3 0;
#X connect 13 0 2 0;
#X connect 14 0 1 0;
#X connect 15 0 0 0;
#X connect 15 0 12 0;
#X connect 15 0 13 0;
#X connect 15 0 14 0;
#X connect 16 0 17 0;
#X connect 17 0 15 0;
#X connect 18 0 7 1;
#X connect 19 0 18 0;
#X restore 650 473 pd synth1;
#N canvas 0 0 999 682 synth2 0;
#X obj 123 274 *~ 1;
#X obj 251 489 outlet~;
#X obj 513 27 inlet;
#X obj 353 468 *~;
#X obj 520 115 % 2;
#X obj 181 276 *~ -0.25;
#X obj 254 277 *~ 0.125;
#X obj 335 277 *~ -0.625;
#X obj 137 62 *~ 2;
#X obj 196 66 *~ 3;
#X obj 266 63 *~ 4;
#X obj 77 16 line~;
#X obj 87 -173 inlet;
#X msg 92 -104 \$1 50;
#X obj 104 161 osc~;
#X obj 173 156 osc~;
#X obj 263 160 osc~;
#X obj 345 162 osc~;
#X obj 514 311 vline~;
#X msg 536 230 \$1 100;
#X connect 0 0 1 0;
#X connect 2 0 4 0;
#X connect 3 0 1 0;
#X connect 4 0 19 0;
#X connect 5 0 3 0;
#X connect 6 0 3 0;
#X connect 7 0 3 0;
#X connect 8 0 15 0;
#X connect 9 0 16 0;
#X connect 10 0 17 0;
#X connect 11 0 8 0;
#X connect 11 0 9 0;
#X connect 11 0 10 0;
#X connect 11 0 14 0;
#X connect 12 0 13 0;
#X connect 13 0 11 0;
#X connect 14 0 0 0;
#X connect 15 0 5 0;
#X connect 16 0 6 0;
#X connect 17 0 7 0;
#X connect 18 0 3 1;
#X connect 19 0 18 0;
#X restore 247 427 pd synth2;
#X obj 254 74 urn 13;
#X msg 328 87 clear;
#N canvas 0 0 450 300 convert 0;
#X obj 73 153 int;
#X obj 71 77 * 12;
#X obj 66 27 inlet;
#X obj 72 211 outlet;
#X connect 0 0 3 0;
#X connect 1 0 0 0;
#X connect 2 0 1 0;
#X restore 694 177 pd convert;
#X obj 908 429 value fund;
#X obj 927 120 r newf;
#X obj 919 -51 loadbang;
#X obj 922 -16 s lb1;
#X obj 865 166 r lb1;
#X obj 1035 320 s re-trig;
#X obj 500 111 r re-trig;
#X obj 309 385 r tones-g;
#X obj 734 424 r tones-u;
#X obj 655 222 expr fund*pow(2 \, $f1/12);
#X obj 918 282 t b f;
#X obj 503 141 t b b;
#X obj 264 222 expr fund*pow(2 \, $f1/12);
#X msg 878 208 220;
#N canvas 0 11 1311 718 input 1;
#X obj 160 334 outlet;
#X msg 372 133 1;
#X msg 488 144 2;
#X obj 315 91 r lb1;
#X obj 383 88 r close-freq;
#X obj 507 47 r open-freq;
#N canvas 0 0 1366 726 osc-8000 0;
#X obj 649 80 dumpOSC 8000;
#X obj 650 109 route /sensor;
#X obj 658 156 route 7;
#X obj 649 501 swap 1;
#X obj 649 534 -;
#X obj 661 191 / 10;
#X obj 659 218 int;
#X obj 663 275 / 70;
#X obj 672 319 - 0.12;
#X obj 670 351 abs;
#X obj 672 390 * 1.3;
#X obj 669 425 * 100;
#X obj 683 455 int;
#X obj 710 488 / 100;
#X obj 664 605 outlet;
#X connect 0 0 1 0;
#X connect 1 0 2 0;
#X connect 2 0 5 0;
#X connect 3 0 4 0;
#X connect 3 1 4 1;
#X connect 4 0 14 0;
#X connect 5 0 6 0;
#X connect 6 0 7 0;
#X connect 7 0 8 0;
#X connect 8 0 9 0;
#X connect 9 0 10 0;
#X connect 10 0 11 0;
#X connect 11 0 12 0;
#X connect 12 0 13 0;
#X connect 13 0 3 0;
#X restore 739 150 pd osc-8000;
#X obj 511 88 delay 250;
#X obj 619 73 delay 250;
#X obj 616 17 r open-diff;
#X obj 409 63 r close-diff;
#X obj 386 194 gate 3;
#X msg 528 143 3;
#N canvas 0 0 1366 726 user-freq 0;
#X obj 410 415 + 100;
#X obj 401 381 * 290;
#X obj 327 134 inlet;
#X obj 408 438 s user-freq;
#X connect 0 0 3 0;
#X connect 1 0 0 0;
#X connect 2 0 1 0;
#X restore 403 337 pd user-freq;
#N canvas 0 0 1366 726 user-diff 0;
#X obj 327 134 inlet;
#X obj 401 381 * 20000;
#X obj 410 415 + 10000;
#X obj 408 438 s user-diff;
#X connect 0 0 1 0;
#X connect 1 0 2 0;
#X connect 2 0 3 0;
#X restore 507 245 pd user-diff;
#X obj 148 234 s user-input;
#X obj 156 292 r user-input;
#N canvas 45 14 1311 690 mouseY 0;
#X obj 846 632 outlet;
#X obj 744 379 sel 1;
#X obj 747 407 s click;
#X obj 753 302 MouseState;
#X text 768 272 when mouseclick;
#X msg 769 165 poll;
#X obj 769 132 r lb1;
#X obj 821 343 / 767;
#X obj 817 388 swap 1;
#X obj 837 433 -;
#X text 888 405 Range: 0 to 1;
#X connect 1 0 2 0;
#X connect 3 0 1 0;
#X connect 3 2 7 0;
#X connect 5 0 3 0;
#X connect 6 0 5 0;
#X connect 7 0 8 0;
#X connect 8 0 9 0;
#X connect 8 1 9 1;
#X connect 9 0 0 0;
#X restore 609 201 pd mouseY;
#X connect 1 0 11 0;
#X connect 2 0 11 0;
#X connect 3 0 1 0;
#X connect 4 0 1 0;
#X connect 5 0 7 0;
#X connect 7 0 2 0;
#X connect 8 0 12 0;
#X connect 9 0 8 0;
#X connect 10 0 1 0;
#X connect 11 0 15 0;
#X connect 11 1 13 0;
#X connect 11 2 14 0;
#X connect 12 0 11 0;
#X connect 16 0 0 0;
#X connect 17 0 11 1;
#X coords 0 0 1 1 85 60 0;
#X restore 829 44 pd input;
#N canvas 0 0 1366 726 toggle 0;
#X obj 643 399 vline~;
#X obj 494 104 inlet~;
#X obj 795 80 inlet~;
#X obj 513 548 outlet~;
#X obj 815 551 outlet~;
#X obj 574 252 r start;
#X obj 650 257 r lb1;
#X obj 722 251 r stop;
#X msg 593 347 1 500;
#X msg 665 325 0;
#X msg 718 347 0 500;
#X obj 545 399 *~;
#X obj 776 422 *~;
#X connect 0 0 11 1;
#X connect 0 0 12 0;
#X connect 1 0 11 0;
#X connect 2 0 12 1;
#X connect 5 0 8 0;
#X connect 6 0 9 0;
#X connect 7 0 10 0;
#X connect 8 0 0 0;
#X connect 9 0 0 0;
#X connect 10 0 0 0;
#X connect 11 0 3 0;
#X connect 12 0 4 0;
#X restore 539 559 pd toggle;
#X obj 297 -13 r start;
#X obj 930 383 line;
#X msg 929 339 \$1 50;
#X obj 302 17 t b b;
#X connect 1 0 25 0;
#X connect 2 0 25 1;
#X connect 4 0 7 0;
#X connect 5 0 2 0;
#X connect 6 0 1 0;
#X connect 7 0 22 0;
#X connect 7 1 8 0;
#X connect 8 0 7 0;
#X connect 9 0 19 0;
#X connect 11 0 20 0;
#X connect 12 0 13 0;
#X connect 14 0 23 0;
#X connect 16 0 21 0;
#X connect 17 0 6 1;
#X connect 18 0 5 1;
#X connect 19 0 4 1;
#X connect 19 0 5 0;
#X connect 20 0 15 0;
#X connect 20 1 28 0;
#X connect 21 0 22 0;
#X connect 21 1 19 0;
#X connect 22 0 4 0;
#X connect 22 0 6 0;
#X connect 23 0 20 0;
#X connect 24 0 9 0;
#X connect 25 0 0 0;
#X connect 25 1 0 1;
#X connect 26 0 29 0;
#X connect 27 0 10 0;
#X connect 28 0 27 0;
#X connect 29 0 7 0;
#X connect 29 1 8 0;
