#N canvas 55 24 1311 718 10;
#X declare -path include;
#X obj 288 80 cnv 15 300 283 empty empty Play\ sound 50 12 0 18 -261682
-66577 0;
#X obj 98 79 cnv 15 190 98 empty empty Add\ Sound\ file\ folder 20
12 0 14 -204786 -66577 0;
#X obj 310 137 bng 169 250 50 0 \$0-playFile empty empty 17 7 0 10
-4034 -260097 -1;
#X obj 119 22 declare -path include;
#X obj 121 102 bng 64 250 50 0 \$0-soundFileFolder empty empty 17 7
0 10 -257985 -1 -1;
#X obj 502 144 vsl 70 207 0.01 1 1 1 \$0-vol empty Volume 0 -9 0 10
-204786 -45076 -1 13130 1;
#X obj 97 171 cnv 15 190 98 empty empty View\ file\ pool 20 12 0 14
-204786 -66577 0;
#X obj 120 194 bng 64 250 50 0 \$0-openEditor empty empty 17 7 0 10
-257985 -1 -1;
#X obj 97 266 cnv 15 190 98 empty empty Clear\ file\ pool 20 12 0 14
-204786 -66577 0;
#X obj 120 289 bng 64 250 50 0 \$0-initColl empty empty 17 7 0 10 -258113
-1 -1;
#N canvas 55 24 1311 718 logic 0;
#X obj 505 464 dac~;
#N canvas 45 14 1311 690 audioReaders 0;
#X obj 839 179 routedSfRead 1;
#X obj 839 200 routedSfRead 2;
#X obj 839 221 routedSfRead 3;
#X obj 344 680 catch~ routedSfRead-L;
#X obj 497 680 catch~ routedSfRead-R;
#X obj 285 711 outlet~;
#X obj 495 720 outlet~;
#X obj 267 115 inlet;
#X obj 839 246 routedSfRead 4;
#X obj 839 267 routedSfRead 5;
#X obj 839 288 routedSfRead 6;
#X obj 839 314 routedSfRead 7;
#X obj 839 333 routedSfRead 8;
#X obj 839 355 routedSfRead 9;
#X obj 832 150 routedSfRead 0;
#X obj 285 149 t b s;
#X obj 183 124 r init;
#X obj 326 346 pack f s;
#X obj 245 245 t f f;
#X msg 212 466 \; routedSfRead-\$1.Play 1;
#X msg 387 411 \; routedSfRead-\$1.Load \$2;
#X text 388 51 A problem with the readsf~ object is that it must load
a sound before playing it. It is safer to have multiple readsf~'s each
playing in turn.;
#X obj 263 185 ekext/cup;
#X text 384 277 TODO best distance is N/2 away. leaves the most time
before playing;
#X obj 894 380 routedSfRead 10;
#X obj 894 399 routedSfRead 11;
#X obj 894 420 routedSfRead 12;
#X obj 894 441 routedSfRead 13;
#X obj 894 466 routedSfRead 14;
#X obj 893 484 routedSfRead 15;
#X obj 894 509 routedSfRead 16;
#X obj 894 534 routedSfRead 17;
#X obj 894 553 routedSfRead 18;
#X obj 894 575 routedSfRead 19;
#X obj 1004 194 routedSfRead 20;
#X obj 1004 213 routedSfRead 21;
#X obj 1004 234 routedSfRead 22;
#X obj 1004 255 routedSfRead 23;
#X obj 1004 280 routedSfRead 24;
#X obj 1004 301 routedSfRead 25;
#X obj 1004 322 routedSfRead 26;
#X obj 1004 348 routedSfRead 27;
#X obj 1004 367 routedSfRead 28;
#X obj 1004 389 routedSfRead 29;
#X obj 1005 551 routedSfRead 30;
#X obj 1005 570 routedSfRead 31;
#X obj 1005 591 routedSfRead 32;
#X obj 1005 612 routedSfRead 33;
#X obj 1005 637 routedSfRead 34;
#X obj 1005 658 routedSfRead 35;
#X obj 1005 679 routedSfRead 36;
#X obj 1005 705 routedSfRead 37;
#X obj 1005 724 routedSfRead 38;
#X obj 1005 746 routedSfRead 39;
#X obj 1122 335 routedSfRead 40;
#X obj 1122 354 routedSfRead 41;
#X obj 1122 375 routedSfRead 42;
#X obj 1122 396 routedSfRead 43;
#X obj 1122 421 routedSfRead 44;
#X obj 1122 442 routedSfRead 45;
#X obj 1122 463 routedSfRead 46;
#X obj 1122 489 routedSfRead 47;
#X obj 1122 508 routedSfRead 48;
#X obj 1122 530 routedSfRead 49;
#X obj 246 217 % 50;
#X obj 318 311 % 50;
#X obj 317 282 + 25;
#X msg 183 151 0;
#N canvas 253 14 450 300 readers 0;
#X obj 0 0 routedSfRead 50 /media/STORAGE/quicksounds/PVC-001.wav;
#X restore 688 616 pd readers;
#X msg 621 355 \; pd-readers clear;
#X obj 592 505 pack f f s;
#X msg 544 464 0;
#X msg 585 462 50;
#X msg 592 542 \; pd-readers obj 0 \$1 routedSfRead \$2 \$3 \; pd-readers
loadbang;
#X msg 614 461 symbol /media/STORAGE/quicksounds/PVC-001.wav;
#X msg 323 574 \; routedSfRead-50.Play 1;
#X connect 3 0 5 0;
#X connect 4 0 6 0;
#X connect 7 0 15 0;
#X connect 15 0 22 0;
#X connect 15 1 17 1;
#X connect 16 0 67 0;
#X connect 17 0 20 0;
#X connect 18 0 19 0;
#X connect 18 1 66 0;
#X connect 22 0 64 0;
#X connect 64 0 18 0;
#X connect 65 0 17 0;
#X connect 66 0 65 0;
#X connect 67 0 22 0;
#X connect 70 0 73 0;
#X connect 71 0 70 0;
#X connect 72 0 70 1;
#X connect 74 0 70 2;
#X restore 475 283 pd audioReaders, f 17;
#X obj 476 354 *~ 0.25;
#X obj 566 361 *~ 0.25;
#N canvas 55 24 1311 718 FileStore 0;
#X obj 530 365 outlet;
#N canvas 55 24 1311 718 loadColl 0;
#X obj 194 574 outlet;
#X obj 195 522 pack f s;
#X obj 202 333 t b s;
#X text 279 518 Output example: 1 fileOne.wav;
#X text 282 540 Output example: 2 anotherFile.wav;
#X msg 68 376 0;
#X msg 178 275 symbol \$1/*.wav;
#X obj 43 473 value coll.Length;
#X obj 204 305 hcs/folder_list;
#X obj 132 138 t b s b;
#N canvas 55 24 1311 718 filesLoadedTrigger 0;
#X obj 638 266 delay 1000;
#X obj 875 392 s filesLoaded;
#X obj 664 312 value coll.Length;
#X obj 660 339 select 0;
#X obj 640 433 print ERROR:;
#X msg 642 394 Files not loaded;
#X obj 619 198 inlet;
#X obj 769 365 t b b;
#X obj 775 423 s initReaders;
#X connect 0 0 2 0;
#X connect 2 0 3 0;
#X connect 3 0 5 0;
#X connect 3 1 7 0;
#X connect 5 0 4 0;
#X connect 6 0 0 0;
#X connect 7 0 8 0;
#X connect 7 1 1 0;
#X restore 13 209 pd filesLoadedTrigger;
#X obj 185 389 ekext/cup;
#X obj 117 91 tof/folderpanel;
#X obj 124 51 r \$0-soundFileFolder;
#X text 262 212 Upon receiving a new file: 1 reset cup 2 Load files
into coll.;
#X connect 1 0 0 0;
#X connect 2 0 11 0;
#X connect 2 1 1 1;
#X connect 5 0 11 0;
#X connect 6 0 8 0;
#X connect 8 0 2 0;
#X connect 9 0 10 0;
#X connect 9 1 6 0;
#X connect 9 2 5 0;
#X connect 11 0 1 0;
#X connect 11 0 7 0;
#X connect 12 0 9 0;
#X connect 13 0 12 0;
#X restore 636 127 pd loadColl;
#X msg 544 115 clear;
#N canvas 283 34 450 300 randomFile 0;
#X obj 190 29 value coll.Length;
#X obj 171 79 random;
#X obj 122 -70 inlet;
#X obj 161 155 outlet;
#X obj 198 -34 r filesLoaded;
#X connect 0 0 1 1;
#X connect 1 0 3 0;
#X connect 2 0 1 0;
#X connect 4 0 0 0;
#X restore 463 175 pd randomFile;
#X obj 541 263 cyclone/coll;
#C restore;
#X obj 427 136 r \$0-playFile;
#X msg 627 214 open;
#X obj 647 171 r \$0-openEditor;
#X obj 515 59 r \$0-initColl;
#X connect 1 0 4 0;
#X connect 2 0 4 0;
#X connect 3 0 4 0;
#X connect 4 0 0 0;
#X connect 5 0 3 0;
#X connect 6 0 4 0;
#X connect 7 0 6 0;
#X connect 8 0 2 0;
#X restore 469 242 pd FileStore;
#X obj 622 247 r \$0-vol;
#N canvas 403 154 450 300 init 0;
#X obj 471 57 loadbang;
#X msg 576 150 \; pd dsp 1;
#X obj 505 171 s initColl;
#X obj 336 161 s init;
#X obj 458 91 t b b b;
#X connect 0 0 4 0;
#X connect 4 0 3 0;
#X connect 4 1 2 0;
#X connect 4 2 1 0;
#X restore 490 126 pd init;
#X connect 1 0 2 0;
#X connect 1 1 3 0;
#X connect 2 0 0 0;
#X connect 3 0 0 1;
#X connect 4 0 1 0;
#X connect 5 0 2 1;
#X connect 5 0 3 1;
#X restore 184 53 pd logic;
#N canvas 423 174 450 300 TODO 0;
#X text 91 178 TODO init readers with audio files;
#X text 85 140 TODO set number of audio buffers....algorhytmically
generate. max num of available sounds is numAudioBuffers/2;
#X text 84 114 TODO fadeout when start audio;
#X restore 116 55 pd TODO;
#X obj 912 120 tgl 59 0 empty empty empty 17 7 0 10 -262144 -1 -1 0
1;
#N canvas 55 24 1311 718 PlayShortGroup 0;
#X obj 100 15 inlet;
#X obj 126 417 outlet;
#X obj 171 316 delay;
#X obj 168 243 + 20;
#X obj 106 358 t b b;
#X obj 165 133 cup;
#X obj 166 158 select 6;
#X msg 179 92 0;
#X obj 167 220 random 500;
#X obj 194 177 t b;
#X obj 42 194 bng 8 250 50 0 empty empty empty 17 7 0 10 -262144 -1
-1;
#X text 267 154 Reset when N sounds played. N=inlet 1;
#X obj 141 68 t b b f;
#X obj 295 29 inlet;
#X connect 0 0 12 0;
#X connect 2 0 4 0;
#X connect 3 0 2 0;
#X connect 4 0 10 0;
#X connect 4 1 1 0;
#X connect 5 0 6 0;
#X connect 6 1 9 0;
#X connect 7 0 5 0;
#X connect 8 0 3 0;
#X connect 9 0 8 0;
#X connect 10 0 5 0;
#X connect 12 0 5 0;
#X connect 12 1 7 0;
#X connect 12 2 6 1;
#X connect 13 0 8 1;
#X restore 972 403 pd PlayShortGroup;
#X floatatom 970 355 5 0 50 0 Numsounds - -, f 5;
#X floatatom 1049 325 5 0 0 0 Maxdelay - -, f 5;
#X obj 1018 202 r init;
#X msg 1001 287 set 15;
#X msg 1049 285 25;
#X obj 891 263 random 3;
#X obj 947 314 bng 15 250 50 0 empty empty empty 17 7 0 10 -262144
-1 -1;
#X obj 902 291 select 0;
#X obj 877 216 metro 125;
#X msg 1119 182 1000;
#X floatatom 960 203 5 0 0 0 - - -, f 5;
#X obj 992 160 / 16;
#X obj 1140 300 / 32;
#X text 811 83 This is a trigger algorithm that simply triggers the
'play sound' bang. Feel free to use your own.;
#X text 618 507 TODO REDO WHOLE MECHANIC! LOAD ALL SOUNDS IN TABLES.
;
#X msg 261 625 \; routedTableRead-\$1.Play 1;
#X obj 544 605 catch~ routedTableRead-L;
#X obj 545 650 dac~;
#X obj 717 604 catch~ routedTableRead-R;
#X obj 326 545 routedTableRead 0 /media/STORAGE/quicksounds/PVC-002.wav
;
#X connect 12 0 22 0;
#X connect 13 0 2 0;
#X connect 14 0 13 0;
#X connect 15 0 13 1;
#X connect 16 0 17 0;
#X connect 16 0 18 0;
#X connect 17 0 14 0;
#X connect 18 0 15 0;
#X connect 19 0 21 0;
#X connect 20 0 14 0;
#X connect 21 1 20 0;
#X connect 22 0 19 0;
#X connect 23 0 25 0;
#X connect 23 0 26 0;
#X connect 24 0 22 1;
#X connect 25 0 24 0;
#X connect 26 0 15 0;
#X connect 30 0 31 0;
#X connect 32 0 31 1;
