#N canvas 55 24 1311 718 10;
#X declare -path include;
#X obj 98 176 cnv 15 215 96 empty empty Play\ sound 20 12 0 14 -261682
-66577 0;
#X obj 98 79 cnv 15 215 96 empty empty Add\ Sound\ file\ folder 20
12 0 14 -204786 -66577 0;
#X obj 719 704 dac~;
#N canvas 55 24 1311 718 loadColl 0;
#X obj 194 574 outlet;
#X obj 195 522 pack f s;
#X obj 202 333 t b s;
#X text 279 518 Output example: 1 fileOne.wav;
#X text 282 540 Output example: 2 anotherFile.wav;
#X obj 139 100 r soundFileFolder;
#X msg 68 376 0;
#X msg 178 275 symbol \$1/*.wav;
#X obj 43 473 value coll.Length;
#X obj 204 305 hcs/folder_list;
#X obj 132 138 t b s b;
#N canvas 55 24 1311 718 filesLoadedTrigger 0;
#X obj 638 266 delay 1000;
#X obj 875 392 s filesLoaded;
#X obj 664 312 value coll.Length;
#X obj 660 339 select 0;
#X obj 640 433 print ERROR:;
#X msg 642 394 Files not loaded;
#X obj 619 198 inlet;
#X obj 769 365 t b b;
#X obj 775 423 s initReaders;
#X connect 0 0 2 0;
#X connect 2 0 3 0;
#X connect 3 0 5 0;
#X connect 3 1 7 0;
#X connect 5 0 4 0;
#X connect 6 0 0 0;
#X connect 7 0 8 0;
#X connect 7 1 1 0;
#X restore 13 209 pd filesLoadedTrigger;
#X text 262 212 Upon receiving a new file: 1 reset cup 2 Load files
into coll. 3 After a second verify files have been loaded and send
trigger if they have.;
#X obj 185 389 ekext/cup;
#X connect 1 0 0 0;
#X connect 2 0 13 0;
#X connect 2 1 1 1;
#X connect 5 0 10 0;
#X connect 6 0 13 0;
#X connect 7 0 9 0;
#X connect 9 0 2 0;
#X connect 10 0 11 0;
#X connect 10 1 7 0;
#X connect 10 2 6 0;
#X connect 13 0 1 0;
#X connect 13 0 8 0;
#X restore 714 145 pd loadColl;
#X obj 323 152 s soundFileFolder;
#X msg 622 133 clear;
#X obj 1107 56 loadbang;
#X obj 130 211 bng 47 250 50 0 empty empty empty 17 7 0 10 -203904
-260097 -1;
#N canvas 45 14 1311 690 audioReaders 0;
#X obj 839 179 routedSfRead 1;
#X obj 839 200 routedSfRead 2;
#X obj 839 221 routedSfRead 3;
#X obj 344 680 catch~ routedSfRead-L;
#X obj 497 680 catch~ routedSfRead-R;
#X obj 285 711 outlet~;
#X obj 495 720 outlet~;
#X obj 267 115 inlet;
#X obj 839 246 routedSfRead 4;
#X obj 839 267 routedSfRead 5;
#X obj 839 288 routedSfRead 6;
#X obj 839 314 routedSfRead 7;
#X obj 839 333 routedSfRead 8;
#X obj 839 355 routedSfRead 9;
#X obj 839 160 routedSfRead 0;
#X obj 285 149 t b s;
#X obj 183 124 r init;
#X msg 183 151 0;
#X obj 326 346 pack f s;
#X obj 245 245 t f f;
#X msg 212 466 \; routedSfRead-\$1.Play 1;
#X msg 372 376 \; routedSfRead-\$1.Load \$2;
#X text 388 51 A problem with the readsf~ object is that it must load
a sound before playing it. It is safer to have multiple readsf~'s each
playing in turn.;
#X obj 263 185 ekext/cup;
#X text 384 277 TODO best distance is N/2 away. leaves the most time
before playing;
#X obj 894 380 routedSfRead 10;
#X obj 894 399 routedSfRead 11;
#X obj 894 420 routedSfRead 12;
#X obj 894 441 routedSfRead 13;
#X obj 894 466 routedSfRead 14;
#X obj 893 484 routedSfRead 15;
#X obj 894 509 routedSfRead 16;
#X obj 894 534 routedSfRead 17;
#X obj 894 553 routedSfRead 18;
#X obj 894 575 routedSfRead 19;
#X obj 1004 194 routedSfRead 20;
#X obj 1004 213 routedSfRead 21;
#X obj 1004 234 routedSfRead 22;
#X obj 1004 255 routedSfRead 23;
#X obj 1004 280 routedSfRead 24;
#X obj 1004 301 routedSfRead 25;
#X obj 1004 322 routedSfRead 26;
#X obj 1004 348 routedSfRead 27;
#X obj 1004 367 routedSfRead 28;
#X obj 1004 389 routedSfRead 29;
#X obj 1005 551 routedSfRead 30;
#X obj 1005 570 routedSfRead 31;
#X obj 1005 591 routedSfRead 32;
#X obj 1005 612 routedSfRead 33;
#X obj 1005 637 routedSfRead 34;
#X obj 1005 658 routedSfRead 35;
#X obj 1005 679 routedSfRead 36;
#X obj 1005 705 routedSfRead 37;
#X obj 1005 724 routedSfRead 38;
#X obj 1005 746 routedSfRead 39;
#X obj 1122 335 routedSfRead 40;
#X obj 1122 354 routedSfRead 41;
#X obj 1122 375 routedSfRead 42;
#X obj 1122 396 routedSfRead 43;
#X obj 1122 421 routedSfRead 44;
#X obj 1122 442 routedSfRead 45;
#X obj 1122 463 routedSfRead 46;
#X obj 1122 489 routedSfRead 47;
#X obj 1122 508 routedSfRead 48;
#X obj 1122 530 routedSfRead 49;
#X obj 246 217 % 50;
#X obj 318 311 % 50;
#X obj 317 282 + 25;
#X connect 3 0 5 0;
#X connect 4 0 6 0;
#X connect 7 0 15 0;
#X connect 15 0 23 0;
#X connect 15 1 18 1;
#X connect 16 0 17 0;
#X connect 17 0 23 0;
#X connect 18 0 21 0;
#X connect 19 0 20 0;
#X connect 19 1 67 0;
#X connect 23 0 65 0;
#X connect 65 0 19 0;
#X connect 66 0 18 0;
#X connect 67 0 66 0;
#X restore 643 416 pd audioReaders, f 17;
#X obj 119 22 declare -path include;
#N canvas 283 34 450 300 randomFile 0;
#X obj 190 29 value coll.Length;
#X obj 171 79 random;
#X obj 122 -70 inlet;
#X obj 161 155 outlet;
#X obj 198 -34 r filesLoaded;
#X connect 0 0 1 1;
#X connect 1 0 3 0;
#X connect 2 0 1 0;
#X connect 4 0 0 0;
#X restore 541 193 pd randomFile;
#X obj 671 286 cyclone/coll;
#C restore;
#X msg 1212 149 \; pd dsp 1;
#X obj 327 232 tgl 59 0 empty empty empty 17 7 0 10 -262144 -1 -1 0
1;
#N canvas 55 24 1311 718 PlayShortGroup 0;
#X obj 100 15 inlet;
#X obj 126 417 outlet;
#X obj 171 316 delay;
#X obj 168 243 + 20;
#X obj 106 358 t b b;
#X obj 165 133 cup;
#X obj 166 158 select 6;
#X msg 179 92 0;
#X obj 167 220 random 500;
#X obj 194 177 t b;
#X obj 42 194 bng 8 250 50 0 empty empty empty 17 7 0 10 -262144 -1
-1;
#X text 267 154 Reset when N sounds played. N=inlet 1;
#X obj 141 68 t b b f;
#X obj 295 29 inlet;
#X connect 0 0 12 0;
#X connect 2 0 4 0;
#X connect 3 0 2 0;
#X connect 4 0 10 0;
#X connect 4 1 1 0;
#X connect 5 0 6 0;
#X connect 6 1 9 0;
#X connect 7 0 5 0;
#X connect 8 0 3 0;
#X connect 9 0 8 0;
#X connect 10 0 5 0;
#X connect 12 0 5 0;
#X connect 12 1 7 0;
#X connect 12 2 6 1;
#X connect 13 0 8 1;
#X restore 387 515 pd PlayShortGroup;
#X floatatom 385 467 5 0 50 0 Numsounds - -, f 5;
#X floatatom 464 437 5 0 0 0 Maxdelay - -, f 5;
#X obj 1141 170 s initColl;
#X obj 593 77 r initColl;
#X obj 972 160 s init;
#X obj 433 314 r init;
#X text 147 631 TODO init readers with audio files;
#X msg 416 399 set 15;
#X msg 464 397 25;
#X text 141 593 TODO set number of audio buffers....algorhytmically
generate. max num of available sounds is numAudioBuffers/2;
#X text 140 567 TODO fadeout when start audio;
#X obj 331 121 tof/folderpanel;
#X obj 121 102 bng 64 250 50 0 empty empty empty 17 7 0 10 -257985
-1 -1;
#X obj 1094 90 t b b b;
#X obj 122 57 bng 15 250 50 0 empty empty Reset 17 7 0 10 -258113 -1
-1;
#X obj 182 52 s initColl;
#X obj 690 594 *~ 0.25;
#X obj 780 601 *~ 0.25;
#X obj 850 441 vsl 30 90 0.01 1 1 1 empty empty empty 0 -9 0 10 -204786
-45076 -1 8100 1;
#X obj 306 375 random 3;
#X obj 362 426 bng 15 250 50 0 empty empty empty 17 7 0 10 -262144
-1 -1;
#X obj 317 403 select 0;
#X obj 292 328 metro 125;
#X msg 534 294 1000;
#X floatatom 375 315 5 0 0 0 - - -, f 5;
#X obj 407 272 / 16;
#X obj 555 412 / 32;
#X connect 3 0 11 0;
#X connect 5 0 11 0;
#X connect 6 0 28 0;
#X connect 7 0 10 0;
#X connect 8 0 31 0;
#X connect 8 1 32 0;
#X connect 10 0 11 0;
#X connect 11 0 8 0;
#X connect 13 0 37 0;
#X connect 14 0 7 0;
#X connect 15 0 14 0;
#X connect 16 0 14 1;
#X connect 18 0 5 0;
#X connect 20 0 22 0;
#X connect 20 0 23 0;
#X connect 22 0 15 0;
#X connect 23 0 16 0;
#X connect 26 0 4 0;
#X connect 27 0 26 0;
#X connect 28 0 19 0;
#X connect 28 1 17 0;
#X connect 28 2 12 0;
#X connect 29 0 30 0;
#X connect 31 0 2 0;
#X connect 32 0 2 1;
#X connect 33 0 32 1;
#X connect 33 0 31 1;
#X connect 34 0 36 0;
#X connect 35 0 15 0;
#X connect 36 1 35 0;
#X connect 37 0 34 0;
#X connect 38 0 40 0;
#X connect 38 0 41 0;
#X connect 39 0 37 1;
#X connect 40 0 39 0;
#X connect 41 0 16 0;
